#!OML:ASF I:\Actors\actors\Patient Classification 2\Patient 1\Session 1\actor1.ASF
:FULLY-SPECIFIED
:DEGREES
470
root -0.260327 18.8905 5.12921 22.1369 4.36348 -1.81513
lowerback 28.8596 -0.215519 1.26601
upperback 3.3781 0.225842 0.737254
thorax -12.2034 0.0663579 0.024025
lowerneck -19.8856 0.370705 1.3723
upperneck 4.35963 0.0131173 1.48041
head 4.46098 0.138396 0.249041
rclavicle -8.8366e-016 -5.12492e-017
rhumerus 10.9741 24.81 -77.5405
rradius 51.961
rwrist 19.1973
rhand -21.4125 -39.5697
rfingers 7.12502
rthumb 4.97605 -69.4913
lclavicle -8.8366e-016 -5.12492e-017
lhumerus 10.377 -35.7742 80.0153
lradius 61.0916
lwrist -2.68388
lhand -15.9785 -24.5602
lfingers 7.12502
lthumb 10.2209 5.17145
rfemur -17.6006 -2.60695 15.4885
rtibia 5.64548e-014
rfoot -15.9502 -18.4269
rtoes -3.59324
lfemur -37.0865 -0.175295 -12.7942
ltibia 29.3651
lfoot -14.2026 5.05094
ltoes -55.3572
471
root -0.267108 18.8916 5.13919 22.1773 4.29195 -1.72212
lowerback 28.7674 -0.260042 1.73748
upperback 3.35009 0.267963 0.409238
thorax -12.1834 0.05221 -0.640461
lowerneck -20.4077 0.606885 0.754331
upperneck 4.2113 0.381756 2.46237
head 4.49144 0.378632 0.692999
rclavicle 4.67144e-015 1.21134e-015
rhumerus 10.2415 24.7486 -77.6899
rradius 52.8024
rwrist 18.8866
rhand -21.8202 -39.6813
rfingers 7.12502
rthumb 4.58234 -69.6117
lclavicle 4.67144e-015 1.21134e-015
lhumerus 10.6309 -36.2588 79.6364
lradius 60.8448
lwrist -2.16855
lhand -15.154 -24.0549
lfingers 7.12502
lthumb 11.0162 5.63604
rfemur -17.6141 -2.56946 15.4008
rtibia -4.6118e-014
rfoot -16.0202 -18.4041
rtoes -3.22125
lfemur -37.0448 -0.184326 -12.8696
ltibia 29.3019
lfoot -14.1823 5.09163
ltoes -55.3774
472
root -0.274694 18.8923 5.14794 22.1569 4.29704 -1.64326
lowerback 28.6925 -0.421929 1.84592
upperback 3.32558 0.0510766 0.0990531
thorax -12.1773 -0.0604574 -0.975655
lowerneck -20.3058 0.45713 0.93075
upperneck 3.68732 0.0811708 3.2244
head 4.31703 0.278901 0.874265
rclavicle 1.66979e-014 0
rhumerus 9.86081 25.2915 -77.9653
rradius 53.3382
rwrist 18.5252
rhand -22.1072 -39.8775
rfingers 7.12502
rthumb 4.30529 -69.8137
lclavicle 1.66979e-014 0
lhumerus 10.4937 -36.0395 79.2606
lradius 60.8731
lwrist -2.02105
lhand -14.7643 -23.9538
lfingers 7.12502
lthumb 11.392 5.71677
rfemur -17.5498 -2.59507 15.3457
rtibia 0
rfoot -16.0498 -18.3608
rtoes -2.98219
lfemur -36.9648 -0.242508 -12.9325
ltibia 29.2532
lfoot -14.1812 5.16443
ltoes -55.4275
473
root -0.280953 18.8923 5.15491 22.1138 4.3532 -1.64976
lowerback 28.5735 -0.441151 1.51187
upperback 3.35016 -0.0635472 0.208701
thorax -12.09 -0.0916526 -0.613325
lowerneck -19.8456 -0.176881 0.911809
upperneck 2.86012 -0.764956 3.68748
head 4.004 -0.127663 0.941241
rclavicle -2.48481e-015 -2.18663e-015
rhumerus 9.99302 26.3126 -77.3474
rradius 53.5756
rwrist 17.9265
rhand -22.1437 -40.3117
rfingers 7.12502
rthumb 4.27 -70.2486
lclavicle -2.48481e-015 -2.18663e-015
lhumerus 10.1973 -35.2621 79.6619
lradius 61.0068
lwrist -2.43874
lhand -14.7983 -24.2259
lfingers 7.12502
lthumb 11.3593 5.44644
rfemur -17.4683 -2.63664 15.3824
rtibia 3.89618e-014
rfoot -16.0189 -18.3306
rtoes -3.03628
lfemur -36.8863 -0.28711 -12.9149
ltibia 29.221
lfoot -14.1789 5.22204
ltoes -55.5717
474
root -0.283969 18.8903 5.15911 22.0351 4.52187 -1.71644
lowerback 28.5403 -0.46969 1.39366
upperback 3.3895 -0.110429 0.404624
thorax -12.0275 -0.100578 -0.30348
lowerneck -19.3768 -1.12035 0.615509
upperneck 2.04627 -1.95294 4.15882
head 3.70782 -0.712738 1.03073
rclavicle 4.67144e-015 -3.37934e-015
rhumerus 10.2748 27.215 -76.4029
rradius 53.6507
rwrist 17.2102
rhand -21.9577 -40.8069
rfingers 7.12502
rthumb 4.4496 -70.7401
lclavicle 4.67144e-015 -3.37934e-015
lhumerus 9.93395 -34.5254 80.3161
lradius 61.1876
lwrist -3.0028
lhand -15.1236 -24.7152
lfingers 7.12502
lthumb 11.0455 4.9742
rfemur -17.3523 -2.76068 15.5063
rtibia -1.01778e-013
rfoot -15.9903 -18.3026
rtoes -3.23442
lfemur -36.8142 -0.470271 -12.7732
ltibia 29.2102
lfoot -14.2208 5.317
ltoes -55.6674
475
root -0.287452 18.8889 5.15799 21.8953 4.74497 -1.79053
lowerback 28.6629 -0.553189 1.33151
upperback 3.43686 -0.208963 0.588639
thorax -12.0368 -0.136276 -0.0196399
lowerneck -18.9373 -1.9624 0.366832
upperneck 1.38353 -3.0272 4.71712
head 3.47157 -1.23705 1.15547
rclavicle -2.18663e-015 9.24349e-015
rhumerus 10.6369 27.9088 -75.7063
rradius 53.5903
rwrist 16.5591
rhand -21.7975 -40.9515
rfingers 7.12502
rthumb 4.60434 -70.8815
lclavicle -2.18663e-015 9.24349e-015
lhumerus 9.74807 -33.8433 80.8049
lradius 61.3452
lwrist -3.36328
lhand -15.6176 -25.1637
lfingers 7.12502
lthumb 10.5691 4.55057
rfemur -17.1804 -2.92467 15.6629
rtibia -7.95139e-016
rfoot -15.9687 -18.2966
rtoes -3.3847
lfemur -36.7153 -0.757641 -12.5707
ltibia 29.2169
lfoot -14.3222 5.43382
ltoes -55.5621
476
root -0.291681 18.8883 5.15559 21.7792 4.89222 -1.8695
lowerback 28.7597 -0.623835 1.25855
upperback 3.50272 -0.298828 0.746147
thorax -12.01 -0.168314 0.23691
lowerneck -18.655 -2.56434 0.0991108
upperneck 0.938215 -3.79002 5.33369
head 3.32928 -1.59987 1.32893
rclavicle 2.88238e-015 -3.37934e-015
rhumerus 11.0014 28.1941 -75.4318
rradius 53.4412
rwrist 16.1657
rhand -21.6829 -40.7587
rfingers 7.12502
rthumb 4.71498 -70.6863
lclavicle 2.88238e-015 -3.37934e-015
lhumerus 9.80727 -33.3465 80.9709
lradius 61.4256
lwrist -3.38644
lhand -16.1031 -25.3922
lfingers 7.12502
lthumb 10.1007 4.34541
rfemur -17.0552 -3.01453 15.809
rtibia 1.11319e-014
rfoot -15.9192 -18.3311
rtoes -3.56994
lfemur -36.6363 -0.98098 -12.3799
ltibia 29.2304
lfoot -14.4415 5.54413
ltoes -55.3603
477
root -0.297314 18.8876 5.15448 21.7401 4.91993 -1.89532
lowerback 28.7929 -0.61389 1.08449
upperback 3.5364 -0.31944 0.893012
thorax -11.9864 -0.164951 0.513375
lowerneck -18.5534 -2.93632 -0.236094
upperneck 0.793627 -4.23954 5.84796
head 3.30296 -1.80409 1.50506
rclavicle 5.2181e-015 -1.2921e-015
rhumerus 11.1182 28.0205 -75.5794
rradius 53.3133
rwrist 16.2283
rhand -21.5595 -40.4342
rfingers 7.12502
rthumb 4.8341 -70.359
lclavicle 5.2181e-015 -1.2921e-015
lhumerus 9.97521 -33.0671 80.9968
lradius 61.4614
lwrist -3.24793
lhand -16.3628 -25.4338
lfingers 7.12502
lthumb 9.85013 4.31584
rfemur -17.0282 -3.01932 15.8644
rtibia 3.33958e-014
rfoot -15.8762 -18.3676
rtoes -3.72668
lfemur -36.614 -1.08636 -12.2999
ltibia 29.2464
lfoot -14.5032 5.66222
ltoes -55.2948
478
root -0.304756 18.8875 5.15313 21.7215 4.86084 -1.87605
lowerback 28.8504 -0.534161 0.859203
upperback 3.54104 -0.271148 1.00287
thorax -12.0092 -0.129249 0.751668
lowerneck -18.578 -3.16561 -0.561011
upperneck 0.889468 -4.50372 6.19993
head 3.36209 -1.91641 1.64205
rclavicle -1.49089e-015 5.76476e-015
rhumerus 11.0147 27.5209 -75.9816
rradius 53.2435
rwrist 16.7006
rhand -21.5237 -40.0909
rfingers 7.12502
rthumb 4.86864 -70.0149
lclavicle -1.49089e-015 5.76476e-015
lhumerus 10.1084 -32.9732 80.9752
lradius 61.5048
lwrist -3.21083
lhand -16.4289 -25.2786
lfingers 7.12502
lthumb 9.78638 4.47399
rfemur -17.0285 -2.96211 15.8455
rtibia -1.51076e-014
rfoot -15.888 -18.3742
rtoes -3.72531
lfemur -36.5993 -1.07383 -12.32
ltibia 29.2616
lfoot -14.5068 5.7477
ltoes -55.3997
479
root -0.312666 18.8873 5.15149 21.7167 4.75418 -1.86837
lowerback 28.8969 -0.450463 0.71103
upperback 3.52512 -0.20394 1.04197
thorax -12.0516 -0.0907227 0.857333
lowerneck -18.6028 -3.2767 -0.801176
upperneck 1.07683 -4.62528 6.42686
head 3.44031 -1.96126 1.73826
rclavicle -1.28216e-014 9.44227e-016
rhumerus 10.8479 26.9111 -76.5066
rradius 53.1876
rwrist 17.3452
rhand -21.5073 -39.8318
rfingers 7.12502
rthumb 4.88454 -69.7555
lclavicle -1.28216e-014 9.44227e-016
lhumerus 10.2994 -33.0297 80.8238
lradius 61.4551
lwrist -3.16645
lhand -16.2775 -25.0238
lfingers 7.12502
lthumb 9.93248 4.72189
rfemur -17.0447 -2.85579 15.8256
rtibia 7.15625e-014
rfoot -15.9209 -18.3547
rtoes -3.63844
lfemur -36.5889 -1.04211 -12.3244
ltibia 29.2709
lfoot -14.5415 5.85568
ltoes -55.5383
480
root -0.319927 18.8864 5.14905 21.7619 4.62581 -1.85042
lowerback 28.9083 -0.397787 0.700366
upperback 3.47302 -0.148752 0.974348
thorax -12.1188 -0.0673379 0.765739
lowerneck -18.5951 -3.32745 -0.962458
upperneck 1.33634 -4.68708 6.64242
head 3.53227 -1.97492 1.82339
rclavicle 1.34677e-014 -1.60519e-014
rhumerus 10.6768 26.3186 -77.0772
rradius 53.1167
rwrist 17.9095
rhand -21.4626 -39.5985
rfingers 7.12502
rthumb 4.92766 -69.5212
lclavicle 1.34677e-014 -1.60519e-014
lhumerus 10.6148 -33.294 80.451
lradius 61.3108
lwrist -2.9664
lhand -15.9996 -24.8619
lfingers 7.12502
lthumb 10.2006 4.87081
rfemur -17.1209 -2.73594 15.7925
rtibia -1.82882e-014
rfoot -15.8832 -18.3698
rtoes -3.69508
lfemur -36.6167 -1.04742 -12.3183
ltibia 29.2729
lfoot -14.5862 5.99811
ltoes -55.6158
481
root -0.327398 18.8859 5.14533 21.8514 4.43753 -1.83684
lowerback 28.8527 -0.333404 0.774083
upperback 3.42564 -0.0646851 0.826595
thorax -12.1461 -0.0376478 0.521778
lowerneck -18.5096 -3.39738 -1.02952
upperneck 1.51894 -4.78341 6.75015
head 3.58463 -2.01426 1.85855
rclavicle -3.97569e-015 -7.70291e-015
rhumerus 10.5671 25.8292 -77.4995
rradius 53.0586
rwrist 18.1918
rhand -21.5676 -39.3631
rfingers 7.12502
rthumb 4.82629 -69.2881
lclavicle -3.97569e-015 -7.70291e-015
lhumerus 10.9599 -33.6882 79.9749
lradius 61.2131
lwrist -2.77647
lhand -15.8623 -24.7535
lfingers 7.12502
lthumb 10.333 4.97264
rfemur -17.2673 -2.56058 15.7478
rtibia 2.38542e-014
rfoot -15.7856 -18.4498
rtoes -4.04079
lfemur -36.6716 -0.962288 -12.3366
ltibia 29.2588
lfoot -14.6061 6.08348
ltoes -55.6011
482
root -0.335728 18.8856 5.13969 21.9349 4.24263 -1.84637
lowerback 28.7892 -0.264963 0.825486
upperback 3.39698 0.0203883 0.701263
thorax -12.1466 -0.00582339 0.315966
lowerneck -18.3322 -3.44297 -1.00055
upperneck 1.62167 -4.84617 6.62132
head 3.58698 -2.05317 1.80981
rclavicle -3.97569e-015 -7.7526e-015
rhumerus 10.5364 25.5714 -77.6946
rradius 53.0427
rwrist 18.1916
rhand -21.7595 -39.2367
rfingers 7.12502
rthumb 4.641 -69.1659
lclavicle -3.97569e-015 -7.7526e-015
lhumerus 11.1994 -33.9591 79.6187
lradius 61.217
lwrist -2.71921
lhand -15.8476 -24.6599
lfingers 7.12502
lthumb 10.3472 5.06558
rfemur -17.4152 -2.37047 15.7208
rtibia -2.22639e-014
rfoot -15.7446 -18.5121
rtoes -4.24978
lfemur -36.7252 -0.798202 -12.3559
ltibia 29.2258
lfoot -14.602 6.10227
ltoes -55.5516
483
root -0.342384 18.8856 5.13289 21.9611 4.15222 -1.83694
lowerback 28.8106 -0.255383 0.830874
upperback 3.38826 0.025651 0.636526
thorax -12.1679 -0.00581129 0.236898
lowerneck -18.2496 -3.40483 -0.860512
upperneck 1.83104 -4.81229 6.28651
head 3.62358 -2.0501 1.68658
rclavicle -2.33572e-015 9.93923e-017
rhumerus 10.5946 25.5542 -77.7415
rradius 53.0791
rwrist 17.9838
rhand -21.7526 -39.3085
rfingers 7.12502
rthumb 4.64764 -69.2375
lclavicle -2.33572e-015 9.93923e-017
lhumerus 11.3187 -34.0137 79.3967
lradius 61.3154
lwrist -2.76841
lhand -15.8821 -24.7012
lfingers 7.12502
lthumb 10.3139 5.02591
rfemur -17.482 -2.28439 15.7
rtibia -1.03368e-014
rfoot -15.7575 -18.5373
rtoes -4.21681
lfemur -36.741 -0.715978 -12.3718
ltibia 29.1879
lfoot -14.5703 6.09423
ltoes -55.5372
484
root -0.345683 18.8851 5.12653 21.9353 4.1365 -1.82389
lowerback 28.8865 -0.287883 0.831427
upperback 3.4118 -0.0164797 0.624767
thorax -12.1798 -0.0251764 0.239395
lowerneck -18.2594 -3.31376 -0.700641
upperneck 2.06865 -4.71035 5.91528
head 3.67942 -2.01298 1.55364
rclavicle 5.01931e-015 -3.37934e-015
rhumerus 10.7617 25.6537 -77.6753
rradius 53.1159
rwrist 17.6776
rhand -21.6126 -39.5627
rfingers 7.12502
rthumb 4.78287 -69.4887
lclavicle 5.01931e-015 -3.37934e-015
lhumerus 11.3727 -33.9065 79.3019
lradius 61.4704
lwrist -2.87036
lhand -15.9013 -24.8518
lfingers 7.12502
lthumb 10.2953 4.87623
rfemur -17.4818 -2.26915 15.6901
rtibia 2.62396e-014
rfoot -15.7867 -18.5591
rtoes -4.10452
lfemur -36.71 -0.725629 -12.368
ltibia 29.1613
lfoot -14.5686 6.08214
ltoes -55.5463
